# xmcd
# 
# Track frame offsets:
#     150
#     17845
#     34412
#     53075
#     67245
#     85119
#     106302
#     120677
#     136135
#     152425
#     170885
#     186102
# 
# Disc length: 2716
# 
# Revision: 6
# Processed by: cddbd v1.5.2PL0 Copyright (c) Steve Scherf et al.
# Submitted via: fre:ac v1.0.31
# 
DISCID=a20a9a0c
DTITLE=Steve Marriott - 30 Seconds To Midnite
DYEAR=1989
DGENRE=Rock/Pop
TTITLE0=Knocking on your door
TTITLE1=All or nothing
TTITLE2=One more heartache
TTITLE3=The um um um um um song
TTITLE4=Superlungs
TTITLE5=Get up, stand up
TTITLE6=Rascal you
TTITLE7=Life during wartime
TTITLE8=Phone call away
TTITLE9=Clapping song
TTITLE10=Shakin' all over
TTITLE11=Gipsy woman
EXTD=more info\nMillenniumMusicProjectFormat, syntax as follows:\nTitle{Subtitle}[info](Lyricist;Composer;Date,Artist,Location)[info]\ncorrections to: windking3@yahoo.com
EXTT0=
EXTT1=
EXTT2=
EXTT3=
EXTT4=
EXTT5=
EXTT6=
EXTT7=
EXTT8=
EXTT9=
EXTT10=
EXTT11=
PLAYORDER=
